HIERARCHY
ROOT Hips
{
	OFFSET -0.001795 -0.223333 0.028219
	CHANNELS 6 Xposition Yposition Zposition Zrotation Yrotation Xrotation 
	JOINT LeftUpLeg
	{
		OFFSET 0.069520 -0.091406 -0.006815
		CHANNELS 3 Zrotation Yrotation Xrotation
		JOINT LeftLeg
		{
			OFFSET 0.034277 -0.375199 -0.004496
			CHANNELS 3 Zrotation Yrotation Xrotation
			JOINT LeftFoot
			{
				OFFSET -0.013596 -0.397961 -0.043693
				CHANNELS 3 Zrotation Yrotation Xrotation
				JOINT LeftToe
				{
					OFFSET 0.026358 -0.055791 0.119288
					CHANNELS 3 Zrotation Yrotation Xrotation
					End Site
					{
						OFFSET 0.000000 0.000000 0.000000
					}
				}
			}
		}
	}
	JOINT RightUpLeg
	{
		OFFSET -0.067670 -0.090522 -0.004320
		CHANNELS 3 Zrotation Yrotation Xrotation
		JOINT RightLeg
		{
			OFFSET -0.038290 -0.382569 -0.008850
			CHANNELS 3 Zrotation Yrotation Xrotation
			JOINT RightFoot
			{
				OFFSET 0.015774 -0.398415 -0.042312
				CHANNELS 3 Zrotation Yrotation Xrotation
				JOINT RightToe
				{
					OFFSET -0.025372 -0.048144 0.123348
					CHANNELS 3 Zrotation Yrotation Xrotation
					End Site
					{
						OFFSET 0.000000 0.000000 0.000000
					}
				}
			}
		}
	}
	JOINT Spine
	{
		OFFSET -0.002533 0.108963 -0.026696
		CHANNELS 3 Zrotation Yrotation Xrotation
		JOINT Spine1
		{
			OFFSET 0.005487 0.135180 0.001092
			CHANNELS 3 Zrotation Yrotation Xrotation
			JOINT Spine2
			{
				OFFSET 0.001457 0.052922 0.025425
				CHANNELS 3 Zrotation Yrotation Xrotation
				JOINT Neck
				{
					OFFSET -0.002778 0.213870 -0.042857
					CHANNELS 3 Zrotation Yrotation Xrotation
					JOINT Head
					{
						OFFSET 0.005152 0.064970 0.051349
						CHANNELS 3 Zrotation Yrotation Xrotation
						End Site
						{
							OFFSET 0.000000 0.000000 0.000000
						}
					}
				}
				JOINT LeftShoulder
				{
					OFFSET 0.078845 0.121749 -0.034090
					CHANNELS 3 Zrotation Yrotation Xrotation
					JOINT LeftArm
					{
						OFFSET 0.090977 0.030469 -0.008868
						CHANNELS 3 Zrotation Yrotation Xrotation
						JOINT LeftForeArm
						{
							OFFSET 0.259612 -0.012772 -0.027456
							CHANNELS 3 Zrotation Yrotation Xrotation
							JOINT LeftHand
							{
								OFFSET 0.249234 0.008986 -0.001171
								CHANNELS 3 Zrotation Yrotation Xrotation
								End Site
								{
									OFFSET 0.000000 0.000000 0.000000
								}
							}
						}
					}
				}
				JOINT RightShoulder
				{
					OFFSET -0.081759 0.118833 -0.038615
					CHANNELS 3 Zrotation Yrotation Xrotation
					JOINT RightArm
					{
						OFFSET -0.096012 0.032551 -0.009143
						CHANNELS 3 Zrotation Yrotation Xrotation
						JOINT RightForeArm
						{
							OFFSET -0.253742 -0.013329 -0.021401
							CHANNELS 3 Zrotation Yrotation Xrotation
							JOINT RightHand
							{
								OFFSET -0.255298 0.007772 -0.005559
								CHANNELS 3 Zrotation Yrotation Xrotation
								End Site
								{
									OFFSET 0.000000 0.000000 0.000000
								}
							}
						}
					}
				}
			}
		}
	}
}
MOTION
Frames: 5
Frame Time: 0.050000
-2.201086 0.958952 0.271978 -3.121619 50.363383 -1.412336 1.285759 -0.725468 -8.098884 -5.422250 -1.071434 14.047904 10.031631 21.411110 17.037833 0.000000 0.000000 0.000000 2.936299 0.791583 -9.782264 -1.180308 -0.011056 4.042811 1.658436 -5.990377 60.586761 0.000000 0.000000 0.000000 2.655081 -3.345807 21.081881 -5.972108 1.864378 -29.342330 -4.521131 7.141932 32.623060 14.239522 0.500120 -31.088055 0.000000 0.000000 0.000000 -18.701776 -11.346822 -7.273060 -48.678896 -7.148714 -2.382642 3.423597 -40.311453 -4.354543 0.000000 0.000000 0.000000 33.456973 -14.169059 3.122105 55.009555 12.137489 -5.521299 -0.656186 38.010930 4.871010 0.000000 0.000000 0.000000 
-2.211950 0.960358 0.259073 -3.803328 49.871890 -1.814127 1.458607 -0.660269 -7.441952 -5.020136 -0.760717 11.339637 9.651039 20.690968 15.771059 0.000000 0.000000 0.000000 3.315056 0.873448 -11.377247 -1.173605 -0.007213 4.157996 1.261434 -7.490392 63.231002 0.000000 0.000000 0.000000 1.518154 -3.157722 21.361051 -6.295601 1.858982 -29.597394 -4.403620 7.244701 33.022673 15.041590 -0.213905 -30.377631 0.000000 0.000000 0.000000 -18.798222 -11.749383 -7.037081 -47.806045 -7.365930 -2.179447 5.452910 -41.112649 -5.207243 0.000000 0.000000 0.000000 33.421188 -13.648471 3.487626 55.761849 11.632341 -5.739762 0.695277 38.306366 5.284718 0.000000 0.000000 0.000000 
-2.219953 0.961553 0.248397 -4.658834 49.787368 -2.529552 1.892979 -0.682893 -7.499401 -5.129594 -0.615915 9.919648 9.939972 21.078910 16.301849 0.000000 0.000000 0.000000 3.388917 0.885434 -12.440831 -0.508938 -0.208816 4.962110 1.276707 -7.021643 62.072440 0.000000 0.000000 0.000000 0.564794 -2.997373 21.478607 -6.531172 1.914896 -29.417675 -4.485096 7.272393 33.082679 15.009087 -0.219973 -30.344411 0.000000 0.000000 0.000000 -19.461652 -12.050650 -7.240913 -46.512277 -8.055806 -1.576488 6.455390 -41.393068 -5.560398 0.000000 0.000000 0.000000 32.977458 -13.167117 3.836417 57.078176 11.451325 -5.650268 1.852679 38.422163 5.684614 0.000000 0.000000 0.000000 
-2.225122 0.962636 0.240472 -5.582835 49.569171 -3.645090 2.259749 -0.646270 -6.954302 -5.029386 -0.525291 8.879305 10.160359 21.177404 16.159449 0.000000 0.000000 0.000000 3.311819 0.878255 -12.547809 0.316596 -0.529413 6.387944 2.672232 -3.546614 55.863530 0.000000 0.000000 0.000000 -0.369920 -2.917970 21.902724 -6.845241 1.898798 -29.833218 -4.462835 7.430411 33.459968 15.611907 -0.982550 -28.914266 0.000000 0.000000 0.000000 -20.446256 -12.637682 -7.418755 -44.924193 -7.714526 -1.308889 7.967814 -42.461368 -6.242013 0.000000 0.000000 0.000000 33.172658 -12.822794 4.185443 57.244092 10.935136 -6.029250 3.152009 39.855164 6.445948 0.000000 0.000000 0.000000 
-2.228200 0.963138 0.235058 -6.530026 49.502245 -4.213392 2.838526 -0.691068 -7.136924 -4.458669 -0.504200 8.426874 8.733188 19.763056 15.646625 0.000000 0.000000 0.000000 3.349059 0.888596 -12.720829 0.391533 -0.757514 8.447540 5.338778 2.514771 45.381501 0.000000 0.000000 0.000000 -1.005818 -2.665978 21.327779 -7.251556 1.969653 -29.571084 -4.806559 6.888308 33.181336 15.314167 -1.055829 -28.244352 0.000000 0.000000 0.000000 -20.627794 -12.739690 -7.265228 -43.882374 -8.265902 -0.999720 9.000974 -42.098907 -6.472226 0.000000 0.000000 0.000000 32.715199 -12.606966 4.045964 57.391942 9.593899 -6.472848 5.779331 41.072602 7.656102 0.000000 0.000000 0.000000 
